<svg width="20" height="20" viewBox="0 0 20 20" fill="none" xmlns="http://www.w3.org/2000/svg">
<path d="M4.78046 11.955L4.12779 14.3914L1.74229 14.4418C1.02938 13.1196 0.625 11.6068 0.625 9.99914C0.625 8.44456 1.00308 6.97858 1.67326 5.68774H1.67377L3.79753 6.07709L4.72787 8.18804C4.53315 8.75569 4.42702 9.36505 4.42702 9.99914C4.42709 10.6873 4.55175 11.3467 4.78046 11.955Z" fill="#FBBB00"/>
<path d="M19.2113 8.24805C19.3189 8.81515 19.3751 9.40082 19.3751 9.99938C19.3751 10.6706 19.3045 11.3253 19.1701 11.9568C18.7137 14.1058 17.5212 15.9823 15.8692 17.3102L15.8687 17.3097L13.1937 17.1732L12.8151 14.8099C13.9113 14.1671 14.7679 13.1611 15.2192 11.9568H10.2061V8.24805H15.2923H19.2113Z" fill="#518EF8"/>
<path d="M15.8688 17.3105L15.8693 17.311C14.2626 18.6024 12.2217 19.375 10 19.375C6.42976 19.375 3.32567 17.3795 1.74219 14.4429L4.78035 11.9561C5.57208 14.069 7.6104 15.5731 10 15.5731C11.0272 15.5731 11.9894 15.2954 12.8151 14.8107L15.8688 17.3105Z" fill="#28B446"/>
<path d="M15.9848 2.78326L12.9477 5.26964C12.0931 4.73549 11.0829 4.42693 10.0007 4.42693C7.55698 4.42693 5.48054 6.00003 4.72847 8.18872L1.67434 5.68843H1.67383C3.23413 2.68025 6.37736 0.625 10.0007 0.625C12.2755 0.625 14.3612 1.43526 15.9848 2.78326Z" fill="#F14336"/>
</svg>
