<svg width="187" height="48" viewBox="0 0 187 48" fill="none" xmlns="http://www.w3.org/2000/svg">
<path fill-rule="evenodd" clip-rule="evenodd" d="M22.3284 0L23.4868 4.38879C31.4318 4.66788 38.6665 10.3046 40.8816 18.6971C43.0967 27.0896 39.6005 35.617 32.8573 39.8916L34.0239 44.3113C30.767 46.081 27.0456 47.0845 23.0933 47.0845C15.2963 47.0845 8.39784 43.1791 4.19234 37.1901L12.4834 34.9347L28.6833 44.7158L17.503 2.35607L8.2908 19.0498L0 21.3051C1.08351 9.59948 10.607 0.3855 22.3284 0ZM25.3595 11.4841C29.6884 12.4063 33.2918 15.7392 34.5286 20.4253C35.7584 25.0848 34.2863 29.8268 30.9707 32.7434L25.3595 11.4841Z" fill="#3577EF"/>
<path d="M63.4156 12.241V17.7518H72.3029V22.8746H63.4156V28.8512H73.4672V34.168H56.7793V6.92413H73.4672V12.241H63.4156Z" fill="#3577EF"/>
<path d="M76.456 23.3791C76.456 21.2317 76.8959 19.3171 77.7756 17.6354C78.6811 15.9537 79.8842 14.6471 81.3848 13.7157C82.9113 12.7584 84.5671 12.2798 86.3523 12.2798C87.7236 12.2798 88.9525 12.5256 90.0392 13.0171C91.1258 13.4828 92.0055 14.1426 92.6782 14.9964V12.5126H99.3145V40.3672H92.6782V31.4514C91.9279 32.3569 91.0094 33.0814 89.9228 33.6247C88.862 34.168 87.646 34.4397 86.2747 34.4397C84.5154 34.4397 82.8854 33.974 81.3848 33.0426C79.8842 32.1111 78.6811 30.8046 77.7756 29.1229C76.8959 27.4411 76.456 25.5266 76.456 23.3791ZM92.6782 23.3403C92.6782 22.1761 92.4453 21.2058 91.9796 20.4297C91.5398 19.6276 90.9577 19.0325 90.2332 18.6444C89.5088 18.2305 88.7456 18.0235 87.9435 18.0235C87.1673 18.0235 86.417 18.2305 85.6926 18.6444C84.9681 19.0325 84.3731 19.6276 83.9074 20.4297C83.4417 21.2317 83.2088 22.2149 83.2088 23.3791C83.2088 24.5434 83.4417 25.5266 83.9074 26.3286C84.3731 27.1048 84.9681 27.6999 85.6926 28.1138C86.417 28.5019 87.1673 28.696 87.9435 28.696C88.7197 28.696 89.47 28.5019 90.1944 28.1138C90.9447 27.6999 91.5398 27.0919 91.9796 26.2898C92.4453 25.4878 92.6782 24.5046 92.6782 23.3403Z" fill="#3577EF"/>
<path d="M123.084 23.3403C123.084 21.6845 122.619 20.3779 121.687 19.4206C120.782 18.4633 119.669 17.9847 118.35 17.9847C117.03 17.9847 115.905 18.4633 114.973 19.4206C114.068 20.352 113.615 21.6457 113.615 23.3015C113.615 24.9574 114.068 26.2769 114.973 27.26C115.905 28.2173 117.03 28.696 118.35 28.696C119.669 28.696 120.782 28.2173 121.687 27.26C122.619 26.3028 123.084 24.9962 123.084 23.3403Z" fill="#3577EF"/>
<path fill-rule="evenodd" clip-rule="evenodd" d="M187 8.98401H103.312V36.8802H134.522V12.5126H141.158V15.5785C141.805 14.5695 142.697 13.7545 143.836 13.1336C144.974 12.5126 146.307 12.2022 147.833 12.2022C149.618 12.2022 151.235 12.6549 152.684 13.5605C154.133 14.466 155.271 15.7596 156.099 17.4414C156.953 19.1231 157.38 21.0765 157.38 23.3015C157.38 25.5266 156.953 27.4929 156.099 29.2005C155.271 30.8822 154.133 32.1888 152.684 33.1202C151.235 34.0257 149.618 34.4785 147.833 34.4785C146.333 34.4785 145 34.168 143.836 33.5471C142.697 32.9261 141.805 32.1241 141.158 31.1409V36.8802H160.862V12.5126H167.498V15.5785C168.145 14.5695 169.038 13.7545 170.176 13.1336C171.314 12.5126 172.647 12.2022 174.173 12.2022C175.958 12.2022 177.575 12.6549 179.024 13.5605C180.473 14.466 181.612 15.7596 182.44 17.4414C183.293 19.1231 183.72 21.0765 183.72 23.3015C183.72 25.5266 183.293 27.4929 182.44 29.2005C181.612 30.8822 180.473 32.1888 179.024 33.1202C177.575 34.0257 175.958 34.4785 174.173 34.4785C172.673 34.4785 171.34 34.168 170.176 33.5471C169.038 32.9261 168.145 32.1241 167.498 31.1409V36.8802H187V8.98401ZM106.862 23.3015C106.862 21.0765 107.276 19.1231 108.104 17.4414C108.958 15.7596 110.109 14.466 111.558 13.5605C113.007 12.6549 114.624 12.2022 116.409 12.2022C117.936 12.2022 119.268 12.5126 120.406 13.1336C121.571 13.7545 122.463 14.5695 123.084 15.5785V12.5126H129.721V34.168H123.084V31.1021C122.438 32.1112 121.532 32.9261 120.368 33.5471C119.229 34.168 117.897 34.4785 116.37 34.4785C114.611 34.4785 113.007 34.0257 111.558 33.1202C110.109 32.1888 108.958 30.8822 108.104 29.2005C107.276 27.4929 106.862 25.5266 106.862 23.3015Z" fill="#3577EF"/>
<path d="M150.627 23.3015C150.627 21.6457 150.162 20.352 149.23 19.4206C148.325 18.4633 147.199 17.9847 145.854 17.9847C144.534 17.9847 143.409 18.4633 142.478 19.4206C141.572 20.3779 141.119 21.6845 141.119 23.3403C141.119 24.9962 141.572 26.3028 142.478 27.26C143.409 28.2173 144.534 28.696 145.854 28.696C147.173 28.696 148.299 28.2173 149.23 27.26C150.162 26.2769 150.627 24.9574 150.627 23.3015Z" fill="#3577EF"/>
<path d="M175.57 19.4206C176.502 20.352 176.967 21.6457 176.967 23.3015C176.967 24.9574 176.502 26.2769 175.57 27.26C174.639 28.2173 173.514 28.696 172.194 28.696C170.874 28.696 169.749 28.2173 168.818 27.26C167.912 26.3028 167.459 24.9962 167.459 23.3403C167.459 21.6845 167.912 20.3779 168.818 19.4206C169.749 18.4633 170.874 17.9847 172.194 17.9847C173.539 17.9847 174.665 18.4633 175.57 19.4206Z" fill="#3577EF"/>
</svg>
