<svg width="122" height="32" viewBox="0 0 122 32" fill="none" xmlns="http://www.w3.org/2000/svg">
<path fill-rule="evenodd" clip-rule="evenodd" d="M14.5672 0.675537L15.3229 3.53881C20.5063 3.72088 25.2262 7.39829 26.6713 12.8736C28.1165 18.3489 25.8355 23.9122 21.4363 26.701L22.1973 29.5844C20.0726 30.739 17.6447 31.3937 15.0662 31.3937C9.97939 31.3937 5.47879 28.8458 2.7351 24.9385L8.14424 23.4671L18.7131 29.8484L11.419 2.21265L5.40895 13.1037L0 14.5751C0.70689 6.93828 6.92006 0.927039 14.5672 0.675537ZM16.5447 8.16779C19.3689 8.76947 21.7197 10.9439 22.5266 14.0011C23.329 17.041 22.3686 20.1347 20.2054 22.0375L16.5447 8.16779Z" fill="white"/>
<path d="M41.3725 8.66172V12.257H47.1706V15.5992H41.3725V19.4983H47.9302V22.967H37.043V5.19299H47.9302V8.66172H41.3725Z" fill="white"/>
<path d="M49.8802 15.9283C49.8802 14.5273 50.1671 13.2782 50.741 12.1811C51.3318 11.0839 52.1167 10.2315 53.0957 9.62385C54.0916 8.99931 55.1719 8.68704 56.3366 8.68704C57.2312 8.68704 58.0329 8.84739 58.7419 9.1681C59.4508 9.47193 60.0247 9.90236 60.4636 10.4594V8.83895H64.7932V27.0114H60.4636V21.1947C59.9741 21.7855 59.3749 22.2581 58.6659 22.6126C57.9739 22.967 57.1805 23.1443 56.2859 23.1443C55.1381 23.1443 54.0747 22.8404 53.0957 22.2328C52.1167 21.6251 51.3318 20.7727 50.741 19.6755C50.1671 18.5784 49.8802 17.3293 49.8802 15.9283ZM60.4636 15.903C60.4636 15.1434 60.3117 14.5104 60.0078 14.0041C59.7209 13.4808 59.3411 13.0926 58.8685 12.8394C58.3958 12.5693 57.8979 12.4343 57.3746 12.4343C56.8683 12.4343 56.3788 12.5693 55.9061 12.8394C55.4335 13.0926 55.0453 13.4808 54.7414 14.0041C54.4376 14.5273 54.2857 15.1687 54.2857 15.9283C54.2857 16.6879 54.4376 17.3293 54.7414 17.8526C55.0453 18.359 55.4335 18.7472 55.9061 19.0173C56.3788 19.2704 56.8683 19.397 57.3746 19.397C57.881 19.397 58.3705 19.2704 58.8432 19.0173C59.3327 18.7472 59.7209 18.3505 60.0078 17.8273C60.3117 17.304 60.4636 16.6626 60.4636 15.903Z" fill="white"/>
<path d="M80.3012 15.9029C80.3012 14.8226 79.9974 13.9702 79.3897 13.3456C78.7989 12.7211 78.0731 12.4088 77.2123 12.4088C76.3514 12.4088 75.6171 12.7211 75.0095 13.3456C74.4187 13.9533 74.1233 14.7973 74.1233 15.8776C74.1233 16.9578 74.4187 17.8187 75.0095 18.4601C75.6171 19.0847 76.3514 19.3969 77.2123 19.3969C78.0731 19.3969 78.7989 19.0847 79.3897 18.4601C79.9974 17.8356 80.3012 16.9832 80.3012 15.9029Z" fill="white"/>
<path fill-rule="evenodd" clip-rule="evenodd" d="M122 6.53674H67.4014V24.7363H87.763V8.83883H92.0926V10.839C92.5146 10.1807 93.0969 9.64904 93.8396 9.24394C94.5823 8.83883 95.4516 8.63628 96.4475 8.63628C97.6122 8.63628 98.6671 8.93167 99.6124 9.52245C100.558 10.1132 101.3 10.9572 101.84 12.0544C102.398 13.1515 102.676 14.4259 102.676 15.8776C102.676 17.3292 102.398 18.612 101.84 19.7261C101.3 20.8232 100.558 21.6756 99.6124 22.2833C98.6671 22.8741 97.6122 23.1695 96.4475 23.1695C95.4685 23.1695 94.5992 22.9669 93.8396 22.5618C93.0969 22.1567 92.5146 21.6334 92.0926 20.992V24.7363H104.947V8.83883H109.277V10.839C109.699 10.1807 110.281 9.64904 111.024 9.24394C111.767 8.83883 112.636 8.63628 113.632 8.63628C114.797 8.63628 115.852 8.93167 116.797 9.52245C117.742 10.1132 118.485 10.9572 119.025 12.0544C119.582 13.1515 119.86 14.4259 119.86 15.8776C119.86 17.3292 119.582 18.612 119.025 19.7261C118.485 20.8232 117.742 21.6756 116.797 22.2833C115.852 22.8741 114.797 23.1695 113.632 23.1695C112.653 23.1695 111.784 22.9669 111.024 22.5618C110.281 22.1567 109.699 21.6334 109.277 20.992V24.7363H122V6.53674ZM69.7178 15.8776C69.7178 14.4259 69.9879 13.1515 70.528 12.0544C71.085 10.9572 71.8361 10.1132 72.7814 9.52245C73.7266 8.93167 74.7816 8.63628 75.9463 8.63628C76.9422 8.63628 77.8115 8.83883 78.5541 9.24394C79.3137 9.64904 79.8961 10.1807 80.3012 10.839V8.83883H84.6308V22.9669H80.3012V20.9667C79.8792 21.625 79.2884 22.1567 78.5289 22.5618C77.7862 22.9669 76.9169 23.1695 75.9209 23.1695C74.7732 23.1695 73.7266 22.8741 72.7814 22.2833C71.8361 21.6756 71.085 20.8232 70.528 19.7261C69.9879 18.612 69.7178 17.3292 69.7178 15.8776Z" fill="white"/>
<path d="M98.2705 15.8776C98.2705 14.7973 97.9666 13.9533 97.3589 13.3456C96.7682 12.7211 96.0339 12.4088 95.1562 12.4088C94.2953 12.4088 93.5611 12.7211 92.9534 13.3456C92.3627 13.9702 92.0673 14.8226 92.0673 15.9029C92.0673 16.9832 92.3627 17.8356 92.9534 18.4601C93.5611 19.0847 94.2953 19.3969 95.1562 19.3969C96.0171 19.3969 96.7513 19.0847 97.3589 18.4601C97.9666 17.8187 98.2705 16.9578 98.2705 15.8776Z" fill="white"/>
<path d="M114.543 13.3456C115.151 13.9533 115.455 14.7973 115.455 15.8776C115.455 16.9578 115.151 17.8187 114.543 18.4601C113.936 19.0847 113.201 19.3969 112.341 19.3969C111.48 19.3969 110.745 19.0847 110.138 18.4601C109.547 17.8356 109.252 16.9832 109.252 15.9029C109.252 14.8226 109.547 13.9702 110.138 13.3456C110.745 12.7211 111.48 12.4088 112.341 12.4088C113.218 12.4088 113.953 12.7211 114.543 13.3456Z" fill="white"/>
</svg>
